<mxfile host="app.diagrams.net" modified="2023-07-03T21:43:40.730Z" agent="Mozilla/5.0 (X11; Ubuntu; Linux x86_64; rv:109.0) Gecko/20100101 Firefox/114.0" etag="LpI1IjlQXAL1OWnlG2Mm" version="21.5.2" type="device">
  <diagram name="Page-1" id="WrtmoV9ny_IJdTC_MbwY">
    <mxGraphModel dx="450" dy="276" grid="1" gridSize="10" guides="1" tooltips="1" connect="1" arrows="1" fold="1" page="1" pageScale="1" pageWidth="850" pageHeight="1100" math="0" shadow="0">
      <root>
        <mxCell id="0" />
        <mxCell id="1" parent="0" />
        <mxCell id="dJswmsO1cnqk50jD3VT--10" value="&lt;font style=&quot;font-size: 16px;&quot; face=&quot;Courier New&quot;&gt;conv&lt;br&gt;&lt;/font&gt;" style="rounded=1;whiteSpace=wrap;html=1;opacity=60;fillColor=#1ba1e2;fontColor=#ffffff;strokeColor=#006EAF;rotation=90;" vertex="1" parent="1">
          <mxGeometry x="20" y="130" width="120" height="20" as="geometry" />
        </mxCell>
        <mxCell id="dJswmsO1cnqk50jD3VT--18" value="" style="endArrow=classic;html=1;rounded=0;fillColor=#1ba1e2;strokeColor=#006EAF;strokeWidth=3;" edge="1" parent="1">
          <mxGeometry width="50" height="50" relative="1" as="geometry">
            <mxPoint x="90" y="140" as="sourcePoint" />
            <mxPoint x="110" y="140" as="targetPoint" />
          </mxGeometry>
        </mxCell>
        <mxCell id="dJswmsO1cnqk50jD3VT--33" value="&lt;font style=&quot;font-size: 16px;&quot; face=&quot;Courier New&quot;&gt;DownRes&lt;/font&gt;" style="rounded=1;whiteSpace=wrap;html=1;opacity=60;fillColor=#002D47;fontColor=#ffffff;strokeColor=#006EAF;rotation=90;" vertex="1" parent="1">
          <mxGeometry x="60" y="130" width="120" height="20" as="geometry" />
        </mxCell>
        <mxCell id="dJswmsO1cnqk50jD3VT--34" value="" style="endArrow=classic;html=1;rounded=0;fillColor=#1ba1e2;strokeColor=#006EAF;strokeWidth=3;" edge="1" parent="1">
          <mxGeometry width="50" height="50" relative="1" as="geometry">
            <mxPoint x="130" y="140" as="sourcePoint" />
            <mxPoint x="150" y="140" as="targetPoint" />
          </mxGeometry>
        </mxCell>
        <mxCell id="dJswmsO1cnqk50jD3VT--36" value="&lt;font style=&quot;font-size: 16px;&quot; face=&quot;Courier New&quot;&gt;Res&lt;/font&gt;" style="rounded=1;whiteSpace=wrap;html=1;opacity=60;fillColor=#005080;fontColor=#ffffff;strokeColor=#006EAF;rotation=90;" vertex="1" parent="1">
          <mxGeometry x="100" y="130" width="120" height="20" as="geometry" />
        </mxCell>
        <mxCell id="dJswmsO1cnqk50jD3VT--37" value="" style="endArrow=classic;html=1;rounded=0;fillColor=#1ba1e2;strokeColor=#006EAF;strokeWidth=3;" edge="1" parent="1">
          <mxGeometry width="50" height="50" relative="1" as="geometry">
            <mxPoint x="170" y="140" as="sourcePoint" />
            <mxPoint x="190" y="140" as="targetPoint" />
          </mxGeometry>
        </mxCell>
        <mxCell id="dJswmsO1cnqk50jD3VT--38" value="&lt;font style=&quot;font-size: 16px;&quot; face=&quot;Courier New&quot;&gt;Res&lt;/font&gt;" style="rounded=1;whiteSpace=wrap;html=1;opacity=60;fillColor=#005080;fontColor=#ffffff;strokeColor=#006EAF;rotation=90;" vertex="1" parent="1">
          <mxGeometry x="160" y="130" width="120" height="20" as="geometry" />
        </mxCell>
        <mxCell id="dJswmsO1cnqk50jD3VT--39" value="" style="endArrow=classic;html=1;rounded=0;fillColor=#1ba1e2;strokeColor=#006EAF;strokeWidth=3;" edge="1" parent="1">
          <mxGeometry width="50" height="50" relative="1" as="geometry">
            <mxPoint x="230" y="140" as="sourcePoint" />
            <mxPoint x="250" y="140" as="targetPoint" />
          </mxGeometry>
        </mxCell>
        <mxCell id="dJswmsO1cnqk50jD3VT--40" value="&lt;font face=&quot;Courier New&quot; color=&quot;#006eaf&quot;&gt;...&lt;/font&gt;" style="text;html=1;strokeColor=none;fillColor=none;align=center;verticalAlign=middle;whiteSpace=wrap;rounded=0;" vertex="1" parent="1">
          <mxGeometry x="170" y="123" width="60" height="30" as="geometry" />
        </mxCell>
        <mxCell id="dJswmsO1cnqk50jD3VT--62" value="&lt;font style=&quot;font-size: 16px;&quot; face=&quot;Courier New&quot;&gt;DownRes&lt;/font&gt;" style="rounded=1;whiteSpace=wrap;html=1;opacity=60;fillColor=#002D47;fontColor=#ffffff;strokeColor=#006EAF;rotation=90;" vertex="1" parent="1">
          <mxGeometry x="200" y="130" width="120" height="20" as="geometry" />
        </mxCell>
        <mxCell id="dJswmsO1cnqk50jD3VT--63" value="" style="endArrow=classic;html=1;rounded=0;fillColor=#1ba1e2;strokeColor=#006EAF;strokeWidth=3;" edge="1" parent="1">
          <mxGeometry width="50" height="50" relative="1" as="geometry">
            <mxPoint x="270" y="140" as="sourcePoint" />
            <mxPoint x="290" y="140" as="targetPoint" />
          </mxGeometry>
        </mxCell>
        <mxCell id="dJswmsO1cnqk50jD3VT--64" value="&lt;font style=&quot;font-size: 16px;&quot; face=&quot;Courier New&quot;&gt;Res&lt;/font&gt;" style="rounded=1;whiteSpace=wrap;html=1;opacity=60;fillColor=#005080;fontColor=#ffffff;strokeColor=#006EAF;rotation=90;" vertex="1" parent="1">
          <mxGeometry x="240" y="130" width="120" height="20" as="geometry" />
        </mxCell>
        <mxCell id="dJswmsO1cnqk50jD3VT--65" value="" style="endArrow=classic;html=1;rounded=0;fillColor=#1ba1e2;strokeColor=#006EAF;strokeWidth=3;" edge="1" parent="1">
          <mxGeometry width="50" height="50" relative="1" as="geometry">
            <mxPoint x="310" y="140" as="sourcePoint" />
            <mxPoint x="330" y="140" as="targetPoint" />
          </mxGeometry>
        </mxCell>
        <mxCell id="dJswmsO1cnqk50jD3VT--66" value="&lt;font style=&quot;font-size: 16px;&quot; face=&quot;Courier New&quot;&gt;Res&lt;/font&gt;" style="rounded=1;whiteSpace=wrap;html=1;opacity=60;fillColor=#005080;fontColor=#ffffff;strokeColor=#006EAF;rotation=90;" vertex="1" parent="1">
          <mxGeometry x="300" y="130" width="120" height="20" as="geometry" />
        </mxCell>
        <mxCell id="dJswmsO1cnqk50jD3VT--67" value="" style="endArrow=classic;html=1;rounded=0;fillColor=#1ba1e2;strokeColor=#006EAF;strokeWidth=3;" edge="1" parent="1">
          <mxGeometry width="50" height="50" relative="1" as="geometry">
            <mxPoint x="370" y="140" as="sourcePoint" />
            <mxPoint x="390" y="140" as="targetPoint" />
          </mxGeometry>
        </mxCell>
        <mxCell id="dJswmsO1cnqk50jD3VT--68" value="&lt;font face=&quot;Courier New&quot; color=&quot;#006eaf&quot;&gt;...&lt;/font&gt;" style="text;html=1;strokeColor=none;fillColor=none;align=center;verticalAlign=middle;whiteSpace=wrap;rounded=0;" vertex="1" parent="1">
          <mxGeometry x="310" y="123" width="60" height="30" as="geometry" />
        </mxCell>
        <mxCell id="dJswmsO1cnqk50jD3VT--69" value="&lt;font style=&quot;font-size: 16px;&quot; face=&quot;Courier New&quot;&gt;DownRes&lt;/font&gt;" style="rounded=1;whiteSpace=wrap;html=1;opacity=60;fillColor=#002D47;fontColor=#ffffff;strokeColor=#006EAF;rotation=90;" vertex="1" parent="1">
          <mxGeometry x="340" y="130" width="120" height="20" as="geometry" />
        </mxCell>
        <mxCell id="dJswmsO1cnqk50jD3VT--70" value="" style="endArrow=classic;html=1;rounded=0;fillColor=#1ba1e2;strokeColor=#006EAF;strokeWidth=3;" edge="1" parent="1">
          <mxGeometry width="50" height="50" relative="1" as="geometry">
            <mxPoint x="410" y="140" as="sourcePoint" />
            <mxPoint x="430" y="140" as="targetPoint" />
          </mxGeometry>
        </mxCell>
        <mxCell id="dJswmsO1cnqk50jD3VT--71" value="&lt;font style=&quot;font-size: 16px;&quot; face=&quot;Courier New&quot;&gt;Res&lt;/font&gt;" style="rounded=1;whiteSpace=wrap;html=1;opacity=60;fillColor=#005080;fontColor=#ffffff;strokeColor=#006EAF;rotation=90;" vertex="1" parent="1">
          <mxGeometry x="380" y="130" width="120" height="20" as="geometry" />
        </mxCell>
        <mxCell id="dJswmsO1cnqk50jD3VT--72" value="" style="endArrow=classic;html=1;rounded=0;fillColor=#1ba1e2;strokeColor=#006EAF;strokeWidth=3;" edge="1" parent="1">
          <mxGeometry width="50" height="50" relative="1" as="geometry">
            <mxPoint x="450" y="140" as="sourcePoint" />
            <mxPoint x="470" y="140" as="targetPoint" />
          </mxGeometry>
        </mxCell>
        <mxCell id="dJswmsO1cnqk50jD3VT--73" value="&lt;font style=&quot;font-size: 16px;&quot; face=&quot;Courier New&quot;&gt;Res&lt;/font&gt;" style="rounded=1;whiteSpace=wrap;html=1;opacity=60;fillColor=#005080;fontColor=#ffffff;strokeColor=#006EAF;rotation=90;" vertex="1" parent="1">
          <mxGeometry x="440" y="130" width="120" height="20" as="geometry" />
        </mxCell>
        <mxCell id="dJswmsO1cnqk50jD3VT--74" value="" style="endArrow=classic;html=1;rounded=0;fillColor=#1ba1e2;strokeColor=#006EAF;strokeWidth=3;" edge="1" parent="1">
          <mxGeometry width="50" height="50" relative="1" as="geometry">
            <mxPoint x="510" y="140" as="sourcePoint" />
            <mxPoint x="530" y="140" as="targetPoint" />
          </mxGeometry>
        </mxCell>
        <mxCell id="dJswmsO1cnqk50jD3VT--75" value="&lt;font face=&quot;Courier New&quot; color=&quot;#006eaf&quot;&gt;...&lt;/font&gt;" style="text;html=1;strokeColor=none;fillColor=none;align=center;verticalAlign=middle;whiteSpace=wrap;rounded=0;" vertex="1" parent="1">
          <mxGeometry x="450" y="123" width="60" height="30" as="geometry" />
        </mxCell>
        <mxCell id="dJswmsO1cnqk50jD3VT--79" value="" style="shape=curlyBracket;whiteSpace=wrap;html=1;rounded=1;flipH=1;labelPosition=right;verticalLabelPosition=middle;align=left;verticalAlign=middle;direction=south;fillColor=#FFFFFF;fontColor=#FFFFFF;strokeColor=#FFFFFF;strokeWidth=2;" vertex="1" parent="1">
          <mxGeometry x="110" y="50" width="120" height="20" as="geometry" />
        </mxCell>
        <mxCell id="dJswmsO1cnqk50jD3VT--81" value="Stage 1&lt;br&gt;&lt;div&gt;B&lt;sub&gt;1&lt;/sub&gt; blocks&lt;/div&gt;&lt;div&gt;C&lt;sub&gt;1&lt;/sub&gt; x H x W&lt;br&gt;&lt;/div&gt;" style="text;html=1;strokeColor=none;fillColor=none;align=center;verticalAlign=middle;whiteSpace=wrap;rounded=0;fontFamily=Courier New;fontColor=#FFFFFF;" vertex="1" parent="1">
          <mxGeometry x="110" width="120" height="50" as="geometry" />
        </mxCell>
        <mxCell id="dJswmsO1cnqk50jD3VT--82" value="" style="shape=curlyBracket;whiteSpace=wrap;html=1;rounded=1;flipH=1;labelPosition=right;verticalLabelPosition=middle;align=left;verticalAlign=middle;direction=south;fillColor=#FFFFFF;fontColor=#FFFFFF;strokeColor=#FFFFFF;strokeWidth=2;" vertex="1" parent="1">
          <mxGeometry x="250" y="50" width="120" height="20" as="geometry" />
        </mxCell>
        <mxCell id="dJswmsO1cnqk50jD3VT--83" value="Stage 2&lt;br&gt;&lt;div&gt;B&lt;sub&gt;2&lt;/sub&gt; blocks&lt;/div&gt;&lt;div&gt;C&lt;sub&gt;2&lt;/sub&gt; x H//2 x W//2&lt;br&gt;&lt;/div&gt;" style="text;html=1;strokeColor=none;fillColor=none;align=center;verticalAlign=middle;whiteSpace=wrap;rounded=0;fontFamily=Courier New;fontColor=#FFFFFF;" vertex="1" parent="1">
          <mxGeometry x="250" width="120" height="50" as="geometry" />
        </mxCell>
        <mxCell id="dJswmsO1cnqk50jD3VT--84" value="" style="shape=curlyBracket;whiteSpace=wrap;html=1;rounded=1;flipH=1;labelPosition=right;verticalLabelPosition=middle;align=left;verticalAlign=middle;direction=south;fillColor=#FFFFFF;fontColor=#FFFFFF;strokeColor=#FFFFFF;strokeWidth=2;" vertex="1" parent="1">
          <mxGeometry x="390" y="50" width="120" height="20" as="geometry" />
        </mxCell>
        <mxCell id="dJswmsO1cnqk50jD3VT--85" value="Stage 3&lt;br&gt;&lt;div&gt;B&lt;sub&gt;3&lt;/sub&gt; blocks&lt;/div&gt;&lt;div&gt;C&lt;sub&gt;3&lt;/sub&gt; x H//4 x W//4&lt;br&gt;&lt;/div&gt;" style="text;html=1;strokeColor=none;fillColor=none;align=center;verticalAlign=middle;whiteSpace=wrap;rounded=0;fontFamily=Courier New;fontColor=#FFFFFF;" vertex="1" parent="1">
          <mxGeometry x="390" width="120" height="50" as="geometry" />
        </mxCell>
        <mxCell id="dJswmsO1cnqk50jD3VT--86" value="&lt;font style=&quot;font-size: 16px;&quot; face=&quot;Courier New&quot;&gt;BN&lt;br&gt;&lt;/font&gt;" style="rounded=1;whiteSpace=wrap;html=1;fillColor=none;fontColor=#ffffff;strokeColor=#FFFFFF;rotation=90;dashed=1;strokeWidth=2;opacity=80;" vertex="1" parent="1">
          <mxGeometry x="480" y="130" width="120" height="20" as="geometry" />
        </mxCell>
        <mxCell id="dJswmsO1cnqk50jD3VT--87" value="" style="endArrow=classic;html=1;rounded=0;fillColor=#1ba1e2;strokeColor=#006EAF;strokeWidth=3;" edge="1" parent="1">
          <mxGeometry width="50" height="50" relative="1" as="geometry">
            <mxPoint x="550" y="140" as="sourcePoint" />
            <mxPoint x="570" y="140" as="targetPoint" />
          </mxGeometry>
        </mxCell>
        <mxCell id="dJswmsO1cnqk50jD3VT--88" value="&lt;font style=&quot;font-size: 16px;&quot; face=&quot;Courier New&quot;&gt;ReLU&lt;br&gt;&lt;/font&gt;" style="rounded=1;whiteSpace=wrap;html=1;fillColor=none;fontColor=#ffffff;strokeColor=#FFFFFF;rotation=90;dashed=1;strokeWidth=2;opacity=80;" vertex="1" parent="1">
          <mxGeometry x="520" y="130" width="120" height="20" as="geometry" />
        </mxCell>
        <mxCell id="dJswmsO1cnqk50jD3VT--89" value="" style="endArrow=classic;html=1;rounded=0;fillColor=#1ba1e2;strokeColor=#006EAF;strokeWidth=3;" edge="1" parent="1">
          <mxGeometry width="50" height="50" relative="1" as="geometry">
            <mxPoint x="590" y="140" as="sourcePoint" />
            <mxPoint x="610" y="140" as="targetPoint" />
          </mxGeometry>
        </mxCell>
        <mxCell id="dJswmsO1cnqk50jD3VT--90" value="&lt;font style=&quot;font-size: 16px;&quot; face=&quot;Courier New&quot;&gt;GlobAvgPool&lt;br&gt;&lt;/font&gt;" style="rounded=1;whiteSpace=wrap;html=1;opacity=60;fillColor=#001B2B;fontColor=#ffffff;strokeColor=#006EAF;rotation=90;" vertex="1" parent="1">
          <mxGeometry x="560" y="130" width="120" height="20" as="geometry" />
        </mxCell>
        <mxCell id="dJswmsO1cnqk50jD3VT--91" value="" style="endArrow=classic;html=1;rounded=0;fillColor=#1ba1e2;strokeColor=#006EAF;strokeWidth=3;" edge="1" parent="1">
          <mxGeometry width="50" height="50" relative="1" as="geometry">
            <mxPoint x="630" y="140" as="sourcePoint" />
            <mxPoint x="650" y="140" as="targetPoint" />
          </mxGeometry>
        </mxCell>
        <mxCell id="dJswmsO1cnqk50jD3VT--92" value="&lt;font style=&quot;font-size: 16px;&quot; face=&quot;Courier New&quot;&gt;FC&lt;br&gt;&lt;/font&gt;" style="rounded=1;whiteSpace=wrap;html=1;opacity=60;fillColor=none;fontColor=#ffffff;strokeColor=#006EAF;rotation=90;" vertex="1" parent="1">
          <mxGeometry x="600" y="130" width="120" height="20" as="geometry" />
        </mxCell>
        <mxCell id="dJswmsO1cnqk50jD3VT--93" value="" style="shape=curlyBracket;whiteSpace=wrap;html=1;rounded=1;flipH=1;labelPosition=right;verticalLabelPosition=middle;align=left;verticalAlign=middle;direction=south;fillColor=#FFFFFF;fontColor=#FFFFFF;strokeColor=#FFFFFF;" vertex="1" parent="1">
          <mxGeometry x="530" y="50" width="60" height="20" as="geometry" />
        </mxCell>
        <mxCell id="dJswmsO1cnqk50jD3VT--94" value="If&lt;br&gt;Pre-act" style="text;html=1;strokeColor=none;fillColor=none;align=center;verticalAlign=middle;whiteSpace=wrap;rounded=0;fontFamily=Courier New;fontColor=#FFFFFF;" vertex="1" parent="1">
          <mxGeometry x="530" width="60" height="50" as="geometry" />
        </mxCell>
        <mxCell id="dJswmsO1cnqk50jD3VT--95" value="Input&lt;br&gt;&lt;div&gt;C x H x W&lt;br&gt;&lt;/div&gt;" style="text;html=1;strokeColor=none;fillColor=none;align=center;verticalAlign=middle;whiteSpace=wrap;rounded=0;fontFamily=Courier New;fontColor=#FFFFFF;rotation=0;" vertex="1" parent="1">
          <mxGeometry x="40" y="200" width="80" height="30" as="geometry" />
        </mxCell>
      </root>
    </mxGraphModel>
  </diagram>
</mxfile>
